<?xml version="1.0" standalone="no"?>
<!DOCTYPE svg PUBLIC "-//W3C//DTD SVG 20010904//EN"
 "http://www.w3.org/TR/2001/REC-SVG-20010904/DTD/svg10.dtd">
<svg version="1.0" xmlns="http://www.w3.org/2000/svg"
 width="512.000000pt" height="512.000000pt" viewBox="0 0 512.000000 512.000000"
 preserveAspectRatio="xMidYMid meet">
<metadata>
Created by potrace 1.11, written by Peter Selinger 2001-2013
</metadata>
<g transform="translate(0.000000,512.000000) scale(0.100000,-0.100000)"
fill="#000000" stroke="none">
<path d="M2467 5104 c-4 -5 -29 -9 -55 -10 -63 -2 -171 -12 -202 -18 -14 -3
-41 -8 -60 -10 -19 -3 -46 -8 -60 -11 -14 -3 -39 -7 -56 -9 -17 -2 -35 -5 -40
-8 -5 -3 -34 -11 -64 -19 -68 -16 -59 -14 -95 -24 -16 -4 -34 -10 -40 -14 -5
-3 -18 -7 -28 -8 -23 -4 -241 -90 -292 -116 -22 -11 -42 -19 -44 -18 -2 2 -7
-1 -10 -6 -3 -4 -37 -24 -75 -43 -62 -32 -186 -107 -211 -127 -5 -5 -32 -24
-60 -43 -55 -38 -79 -56 -107 -82 -10 -10 -22 -18 -27 -18 -5 0 -12 -7 -15
-16 -4 -9 -9 -15 -12 -12 -3 3 -41 -30 -85 -73 -44 -44 -85 -79 -90 -79 -5 0
-9 -3 -9 -8 0 -4 -19 -28 -42 -54 -24 -26 -59 -66 -78 -89 -19 -23 -43 -50
-52 -60 -10 -11 -18 -21 -18 -24 0 -3 -20 -31 -45 -64 -25 -32 -45 -64 -45
-69 0 -6 -4 -12 -9 -14 -11 -4 -58 -80 -102 -163 -17 -33 -35 -61 -40 -63 -5
-2 -9 -9 -9 -15 0 -7 -17 -48 -39 -92 -21 -44 -55 -127 -76 -185 -20 -58 -40
-112 -43 -120 -3 -8 -6 -18 -7 -22 -2 -5 -3 -9 -4 -10 -2 -2 -5 -14 -8 -28 -7
-39 -11 -55 -13 -55 -1 0 -3 -7 -5 -15 -2 -8 -6 -24 -9 -35 -19 -73 -45 -228
-40 -236 3 -5 2 -9 -3 -9 -4 0 -8 -19 -8 -42 0 -24 -2 -47 -5 -53 -3 -5 -6
-32 -6 -60 -1 -27 -3 -50 -4 -50 -6 0 -5 -254 2 -272 4 -13 3 -25 -3 -28 -5
-4 -6 -11 -2 -18 6 -11 9 -32 15 -129 2 -27 5 -48 8 -48 3 0 6 -12 7 -27 1
-31 9 -88 16 -118 3 -11 13 -57 23 -102 9 -46 21 -83 26 -83 5 0 7 -4 4 -9 -5
-8 25 -112 59 -201 19 -52 26 -67 56 -135 13 -27 22 -53 21 -57 -1 -3 5 -12
13 -18 8 -7 15 -21 15 -31 0 -11 5 -19 11 -19 5 0 8 -3 6 -7 -2 -5 4 -21 14
-38 10 -16 32 -56 50 -88 17 -31 36 -57 40 -57 5 0 8 -3 7 -8 -4 -12 122 -192
197 -281 105 -125 284 -301 305 -301 6 0 8 -4 5 -10 -3 -5 -2 -10 3 -10 8 0
36 -20 72 -53 40 -36 265 -187 279 -187 5 0 11 -4 13 -8 6 -16 365 -185 418
-198 3 0 12 -3 20 -7 102 -42 466 -125 496 -113 8 3 14 1 14 -4 0 -5 8 -9 18
-8 9 0 55 -3 102 -7 156 -13 459 -7 543 11 12 3 42 7 67 11 51 6 75 11 75 13
0 1 9 3 20 5 57 8 100 18 119 25 12 4 26 8 31 9 51 8 243 71 340 113 117 50
140 62 147 72 4 6 8 7 8 3 0 -7 82 35 108 55 6 6 12 7 12 4 0 -4 6 -2 13 4 6
6 35 25 62 42 70 44 159 102 165 108 3 3 21 17 40 31 19 15 45 35 57 45 12 11
37 30 55 44 37 28 227 217 273 270 17 20 48 58 70 85 22 28 43 52 47 53 5 2 8
8 8 13 0 10 10 24 43 60 9 10 17 21 17 24 0 4 18 33 40 66 22 33 40 65 40 70
0 5 4 9 9 9 5 0 12 11 15 25 4 14 11 25 17 25 6 0 8 4 4 9 -3 5 2 16 10 24 8
9 15 23 15 31 0 9 3 16 8 16 4 0 15 20 25 45 11 25 23 45 29 45 5 0 6 4 3 10
-3 5 1 23 10 40 8 16 16 33 17 37 0 5 14 36 29 71 16 34 26 62 22 62 -3 0 0 7
7 15 7 8 9 15 5 15 -4 0 -2 7 5 15 7 8 10 15 6 15 -4 0 0 13 9 30 8 16 15 31
14 32 -3 4 23 112 29 123 3 5 7 16 8 25 2 17 13 80 20 114 32 157 38 242 37
481 -1 203 -4 266 -18 346 -5 24 -9 51 -10 59 -1 8 -5 29 -8 45 -4 17 -9 41
-11 55 -5 27 -6 30 -35 140 -36 139 -121 369 -148 401 -7 8 -13 21 -13 27 0
20 -158 304 -179 322 -3 3 -26 34 -51 70 -24 36 -49 70 -55 76 -5 6 -23 28
-40 49 -82 103 -322 345 -342 345 -2 0 -10 6 -17 13 -7 6 -28 23 -46 37 -19
14 -42 33 -52 43 -10 9 -21 17 -26 17 -4 0 -20 11 -35 25 -15 14 -27 23 -27
20 0 -4 -21 9 -47 27 -27 19 -70 47 -98 63 -58 34 -282 145 -291 145 -3 0 -20
6 -37 14 -32 14 -68 28 -77 31 -3 0 -42 13 -87 29 -45 15 -84 27 -85 27 -2 -1
-25 5 -53 13 -52 15 -187 44 -240 52 -16 2 -40 6 -52 8 -38 8 -137 17 -238 21
-53 3 -100 7 -105 10 -5 3 -11 1 -15 -5 -4 -6 -12 -7 -23 -1 -9 5 -26 5 -38 1
-14 -6 -24 -5 -26 1 -2 6 -7 7 -11 3z"/>
</g>
</svg>
